<svg xmlns="http://www.w3.org/2000/svg" viewBox="0 0 128 128">
  <path fill="#599636" d="M88.038 42.812c1.605 4.643 2.761 9.383 3.141 14.296.472 6.095.256 12.147-1.029 18.142-.035.165-.109.32-.164.48-.403.001-.814-.049-1.208.012-3.329.523-6.655 1.065-9.981 1.604-3.438.557-6.881 1.092-10.313 1.687-1.216.21-2.721-.041-3.212 1.641-.014.046-.154.054-.235.08l.166-10.051c-.057-8.084-.113-16.168-.169-24.252l1.602-.275c2.62-.429 5.24-.864 7.862-1.281 3.129-.497 6.261-.98 9.392-1.465 1.381-.215 2.764-.412 4.148-.618z"/>
  <path fill="#6cac48" d="M88.038 42.812c-1.384.206-2.768.403-4.149.618-3.131.485-6.263.968-9.392 1.465-2.622.417-5.242.852-7.862 1.281l-1.602.275-.012-1.045c-.053-4.905-.105-9.81-.158-14.715-.001-.428-.017-.855-.021-1.283l.155-.004c-1.968-3.048-4.051-6.026-6.059-9.068-1.237-1.872-2.405-3.783-3.598-5.681-.034-.056-.074-.109-.11-.163.094-.061.189-.121.284-.181a82.852 82.852 0 011.647.398c.346.092.682.208 1.028.304 5.466 1.521 10.934 3.034 16.402 4.549 4.789 1.328 9.58 2.649 14.371 3.971.214.059.428.114.642.178-.023.123-.048.244-.07.367-.511 2.827-1.021 5.654-1.532 8.481-.002.012-.007.022-.011.033-.049.078-.095.155-.142.231-3.656 6.076-7.313 12.151-10.969 18.227a.61.61 0 00-.072.301c0 4.255.005 8.51.005 12.765z"/>
  <path fill="#c2bfbf" d="M88.038 42.812c-1.384.206-2.768.403-4.149.618-3.131.485-6.263.968-9.392 1.465-2.622.417-5.242.852-7.862 1.281l-1.602.275c.053-4.905.105-9.81.158-14.715l.021-1.283.155-.004c3.656-6.076 7.313-12.151 10.969-18.227.047-.076.093-.153.142-.231.004-.011.009-.021.011-.033.511-2.827 1.021-5.654 1.532-8.481.022-.123.047-.244.07-.367 4.789 1.322 9.58 2.643 14.371 3.971l-1.532 8.481c-.511 2.827-1.021 5.654-1.532 8.481-.002.012-.007.022-.011.033-.049.078-.095.155-.142.231-3.656 6.076-7.313 12.151-10.969 18.227-.024.099-.047.197-.07.296z"/>
  <path fill="#007237" d="M88.038 42.812c-.023.123-.048.244-.07.367-.511 2.827-1.021 5.654-1.532 8.481-.002.012-.007.022-.011.033-.049.078-.095.155-.142.231-3.656 6.076-7.313 12.151-10.969 18.227-.024.099-.047.197-.07.296l.155-.004c1.968-3.048 4.051-6.026 6.059-9.068 1.237-1.872 2.405-3.783 3.598-5.681.034-.056.074-.109.11-.163z"/>
  <path fill="#00a846" d="M61.729 110.054c-1.69-1.453-3.439-2.842-5.059-4.37-8.717-8.222-15.093-17.899-18.233-29.566-.865-3.213-1.442-6.474-1.627-9.792-.13-2.322-.318-4.665-.154-6.975.437-6.144 1.325-12.229 3.127-18.147l.099-.138c.175.233.427.439.516.702 1.759 5.18 3.505 10.364 5.242 15.551 5.458 16.3 10.909 32.604 16.376 48.9.107.318.384.579.583.866l-.87 2.969z"/>
  <path fill="#6cac48" d="M88.038 42.812c-1.384.206-2.768.403-4.149.618-3.131.485-6.263.968-9.392 1.465-2.622.417-5.242.852-7.862 1.281l-1.602.275-.012-1.045c-.053-4.905-.105-9.81-.158-14.715-.001-.428-.017-.855-.021-1.283l.155-.004c-1.968-3.048-4.051-6.026-6.059-9.068-1.237-1.872-2.405-3.783-3.598-5.681-.034-.056-.074-.109-.11-.163.094-.061.189-.121.284-.181.346.092.682.208 1.028.304 5.466 1.521 10.934 3.034 16.402 4.549 4.789 1.328 9.58 2.649 14.371 3.971.214.059.428.114.642.178-.023.123-.048.244-.07.367-.511 2.827-1.021 5.654-1.532 8.481-.002.012-.007.022-.011.033-.049.078-.095.155-.142.231-3.656 6.076-7.313 12.151-10.969 18.227a.61.61 0 00-.072.301c0 4.255.005 8.51.005 12.765z"/>
  <path fill="#007237" d="M93.608 27.691c-.214-.064-.428-.119-.642-.178-4.791-1.322-9.582-2.643-14.371-3.971-5.468-1.515-10.936-3.028-16.402-4.549a8.927 8.927 0 00-1.028-.304 81.78 81.78 0 011.647.398c5.466 1.521 10.934 3.034 16.402 4.549 4.789 1.328 9.58 2.649 14.371 3.971.214.059.428.114.642.178-.023.123-.048.244-.07.367l1.532-8.481c.022-.123.047-.244.07-.367z"/>
  <path fill="#c2bfbf" d="M88.038 42.812l-1.602.275c.053-4.905.105-9.81.158-14.715l.021-1.283.155-.004c-.047-.076-.093-.153-.142-.231-.004-.011-.009-.021-.011-.033-.511-2.827-1.021-5.654-1.532-8.481l1.532-8.481c.511 2.827 1.021 5.654 1.532 8.481.002.012.007.022.011.033.047.078.093.155.142.231z"/>
  <path fill="#6cac48" d="M62.598 100.414c-3.656 6.076-7.313 12.151-10.969 18.227-.047.076-.093.153-.142.231-.004.011-.009.021-.011.033-.511 2.827-1.021 5.654-1.532 8.481-.022.123-.047.244-.07.367-4.789-1.322-9.58-2.643-14.371-3.971l1.532-8.481c.511-2.827 1.021-5.654 1.532-8.481.002-.012.007-.022.011-.033.049-.078.095-.155.142-.231 3.656-6.076 7.313-12.151 10.969-18.227.024-.099.047-.197.07-.296l1.602.275c.053 4.905.105 9.81.158 14.715.001.428.017.855.021 1.283l-.155.004c1.968 3.048 4.051 6.026 6.059 9.068 1.237 1.872 2.405 3.783 3.598 5.681.034.056.074.109.11.163-.094.061-.189.121-.284.181a8.927 8.927 0 00-1.028-.304c-5.466-1.521-10.934-3.034-16.402-4.549-4.789-1.328-9.58-2.649-14.371-3.971-.214-.059-.428-.114-.642-.178.023-.123.048-.244.07-.367.511-2.827 1.021-5.654 1.532-8.481.002-.012.007-.022.011-.033.049-.078.095-.155.142-.231 3.656-6.076 7.313-12.151 10.969-18.227a.61.61 0 00.072-.301c0-4.255-.005-8.51-.005-12.765z"/>
</svg>