<svg xmlns="http://www.w3.org/2000/svg" viewBox="0 0 128 128">
  <path fill="#83CD29" d="M112.678 30.334L68.535 4.729c-2.781-1.584-6.424-1.584-9.227 0L14.82 30.334C11.951 31.985 10 35.088 10 38.407v51.142c0 3.319 1.951 6.423 4.82 8.074l11.272 6.506c6.104 3.053 8.311 3.053 11.142 3.053 9.145 0 14.373-5.548 14.373-15.184v-50.49c0-.713-.581-1.291-1.291-1.291H44.28c-.713 0-1.291.581-1.291 1.291v50.49c0 3.896-4.024 7.765-10.552 4.479l-11.745-6.763c-.39-.226-.634-.65-.634-1.108V38.407c0-.458.244-.882.634-1.108l44.143-25.605c.378-.22.861-.22 1.239 0l44.143 25.605c.39.226.634.65.634 1.108v51.142c0 .458-.244.882-.634 1.108L66.064 115.27c-.378.22-.861.22-1.239 0l-11.272-6.678c-.356-.207-.795-.226-1.15-.043-3.152 1.766-3.764 2.009-6.728 2.723-.759.181-1.907.479.478 1.388l14.653 8.691c1.39.793 2.937 1.19 4.484 1.19 1.546 0 3.093-.397 4.483-1.19l44.143-25.606c2.869-1.651 4.82-4.754 4.82-8.073V38.407c0-3.319-1.951-6.423-4.82-8.073z"/>
  <path fill="#83CD29" d="M77.91 81.166c-14.373 0-17.387-6.608-17.387-12.158 0-.713.581-1.291 1.291-1.291h6.104c.645 0 1.182.478 1.291 1.117.878 5.928 3.487 8.911 8.701 8.911 5.355 0 7.636-1.213 7.636-4.052 0-1.634-.645-2.847-8.982-3.664-6.972-.679-11.291-2.232-11.291-7.765 0-5.116 4.313-8.164 11.537-8.164 8.116 0 12.138 2.817 12.645 8.877.033.356-.092.713-.335.972-.244.26-.594.413-.961.413h-6.104c-.607 0-1.139-.419-1.281-1.002-.898-4.002-3.08-5.283-8.001-5.283-5.895 0-6.577 2.058-6.577 3.593 0 1.846.808 2.385 8.701 3.424 7.814 1.028 11.573 2.483 11.573 7.987.002 5.457-4.546 8.689-12.477 8.689z"/>
</svg>